<?xml version="1.0" standalone="no"?>
<!DOCTYPE svg PUBLIC "-//W3C//DTD SVG 1.1//EN" "http://www.w3.org/Graphics/SVG/1.1/DTD/svg11.dtd" >
<svg xmlns="http://www.w3.org/2000/svg" xmlns:xlink="http://www.w3.org/1999/xlink" version="1.1">
<metadata></metadata>
<defs>
<font id="maaxitalic" horiz-adv-x="1138" >
<font-face units-per-em="2048" ascent="1589" descent="-459" />
<missing-glyph horiz-adv-x="630" />
<glyph horiz-adv-x="0" />
<glyph horiz-adv-x="682" />
<glyph unicode=" "  horiz-adv-x="630" />
<glyph unicode="&#x09;" horiz-adv-x="630" />
<glyph unicode="&#xa0;" horiz-adv-x="630" />
<glyph unicode="!" horiz-adv-x="595" d="M115 98q0 51 35 86q35 37 86 37t86 -37q37 -35 37 -86t-37 -86q-35 -35 -86 -35t-86 35t-35 86zM205 432l141 1004h156l-142 -1004h-155z" />
<glyph unicode="&#x22;" horiz-adv-x="878" d="M233 934l70 502h148l-70 -502h-148zM614 934l70 502h147l-69 -502h-148z" />
<glyph unicode="#" horiz-adv-x="1605" d="M162 420l20 141h275l131 313h-254l20 142h295l180 420h142l-180 -420h350l178 420h145l-180 -420h234l-21 -142h-274l-131 -313h254l-21 -141h-293l-176 -420h-145l178 420h-350l-179 -420h-143l178 420h-233zM598 561h350l133 313h-350z" />
<glyph unicode="$" horiz-adv-x="1331" d="M90 240l119 108q117 -185 346 -219l74 533l-21 4q-173 30 -272.5 124.5t-99.5 245.5q0 186 149 299q147 112 356 121l31 213h146l-31 -219q232 -38 368 -211l-114 -109q-109 136 -277 170l-71 -505q189 -35 292 -135.5t103 -249.5q0 -180 -137 -299q-137 -116 -373 -131 l-29 -213h-145l31 217q-269 30 -445 256zM395 1038q0 -172 256 -219l70 492q-142 -8 -234 -83.5t-92 -189.5zM698 125q149 12 240.5 87t91.5 194q0 180 -260 229z" />
<glyph unicode="%" horiz-adv-x="1423" d="M119 0l1079 1436h164l-1077 -1436h-166zM211 1165q0 121 86 207q89 86 207 86q99 0 166 -67q69 -66 69 -164q0 -118 -86 -207q-86 -86 -202 -86q-100 0 -170 67t-70 164zM346 1180q0 -51 32.5 -84t80.5 -33q61 0 103 42.5t42 108.5q0 50 -31.5 83.5t-76.5 33.5 q-63 0 -106.5 -42.5t-43.5 -108.5zM743 211q0 121 86 207q89 86 207 86q98 0 166 -68q70 -67 70 -164q0 -117 -86 -206q-86 -86 -203 -86q-100 0 -170 67t-70 164zM879 225q0 -51 32 -83.5t80 -32.5q61 0 103.5 42.5t42.5 108.5q0 50 -32 83.5t-77 33.5q-63 0 -106 -43 t-43 -109z" />
<glyph unicode="&#x26;" horiz-adv-x="1370" d="M74 352q0 270 311 426l78 39q-113 174 -113 305q0 149 104.5 242.5t276.5 93.5q140 0 226.5 -82t86.5 -207q0 -207 -256 -340l-114 -61l252 -391q129 167 200 346h158q-105 -272 -278 -471l157 -252h-180l-88 139q-177 -162 -410 -162q-87 0 -158.5 24t-117.5 62.5 t-77.5 88.5t-44.5 100t-13 100zM227 358q0 -102 73 -171.5t196 -69.5q172 0 321 143l-280 442l-33 -16q-149 -74 -213 -149t-64 -179zM506 1122q0 -99 69 -202l25 -37l94 47q197 102 197 233q0 69 -49.5 112.5t-128.5 43.5q-96 0 -151.5 -53t-55.5 -144z" />
<glyph unicode="'" horiz-adv-x="497" d="M233 934l70 502h148l-70 -502h-148z" />
<glyph unicode="(" horiz-adv-x="737" d="M154 367q0 611 565 1118l100 -107q-508 -461 -508 -1005q0 -392 260 -695l-118 -98q-299 361 -299 787z" />
<glyph unicode=")" horiz-adv-x="737" d="M68 -313q507 460 507 1005q0 391 -260 694l119 99q299 -361 299 -787q0 -611 -565 -1118z" />
<glyph unicode="*" horiz-adv-x="937" d="M221 1251l60 144l235 -80l25 260h149l-47 -260l258 78l25 -150l-258 -47l135 -205l-131 -88l-111 217l-168 -217l-117 96l187 197z" />
<glyph unicode="+" horiz-adv-x="1290" d="M133 434l21 139h426l59 431h145l-59 -431h432l-20 -139h-432l-62 -434h-145l61 434h-426z" />
<glyph unicode="," horiz-adv-x="548" d="M-86 -256l264 489h191l-291 -489h-164z" />
<glyph unicode="-" horiz-adv-x="1028" d="M158 467l20 139h701l-21 -139h-700z" />
<glyph unicode="." horiz-adv-x="618" d="M125 98q0 51 35 86q35 37 86 37t86 -37q37 -35 37 -86t-37 -86q-35 -35 -86 -35t-86 35t-35 86z" />
<glyph unicode="/" horiz-adv-x="1087" d="M147 0l807 1436h162l-807 -1436h-162z" />
<glyph unicode="0" horiz-adv-x="1265" d="M133 543q0 315 143 598q74 143 199.5 228t280.5 89q214 0 323 -158q111 -156 111 -401q0 -318 -146 -604q-71 -144 -197 -231t-280 -87q-216 0 -325 160t-109 406zM289 547q0 -199 75 -311.5t214 -112.5q117 0 210.5 80.5t145.5 210.5q98 252 98 479q0 199 -74 309.5 t-213 110.5q-122 -10 -216.5 -89t-145.5 -204q-94 -225 -94 -473z" />
<glyph unicode="1" horiz-adv-x="1079" d="M68 0l20 147h365l147 1055q-141 -102 -379 -102l21 139q134 6 246.5 55.5t170.5 141.5h134l-183 -1289h346l-20 -147h-868z" />
<glyph unicode="2" horiz-adv-x="1181" d="M45 0l6 47q26 219 150 377q121 154 397 274l43 19q166 72 244 155t78 213q0 104 -74.5 166t-196.5 62q-119 0 -217.5 -67t-157.5 -177l-100 117q178 272 494 272q169 0 288 -96q119 -94 119 -272q0 -168 -98 -286t-311 -216l-125 -58q-307 -142 -353 -383h752l-20 -147 h-918z" />
<glyph unicode="3" horiz-adv-x="1165" d="M47 195l119 102q119 -174 332 -174q145 0 252 78q106 78 106 229q0 112 -86 168.5t-233 56.5h-109l23 150h86q169 0 273.5 80.5t104.5 218.5q0 103 -77 156t-172 53q-197 0 -353 -156l-90 107q206 194 445 194q182 0 293.5 -93.5t111.5 -256.5q0 -134 -84 -238 q-80 -99 -168 -131q83 -37 138 -119.5t55 -183.5q0 -219 -154 -340q-149 -119 -373 -119q-130 0 -247.5 58t-192.5 160z" />
<glyph unicode="4" horiz-adv-x="1193" d="M61 362l19 136l807 938h145l-131 -926h199l-21 -148h-198l-52 -362h-155l51 362h-664zM248 510h497l97 686z" />
<glyph unicode="5" horiz-adv-x="1130" d="M72 197l121 104q117 -178 323 -178q160 0 277 102q116 101 116 267q0 126 -77.5 199t-206.5 73q-89 0 -176 -45.5t-132 -112.5h-141l152 830h766l-21 -148h-624l-91 -485q114 108 308 108q174 0 286 -106q115 -106 115 -293q0 -218 -164 -377q-166 -158 -416 -158 q-263 0 -415 220z" />
<glyph unicode="6" horiz-adv-x="1261" d="M168 565q0 388 182 641q184 252 471 252q239 0 365 -188l-119 -109q-87 152 -266 152q-178 0 -309 -168q-129 -163 -164 -432q70 103 176 160t217 57q178 0 299 -115t121 -299q0 -240 -160 -391q-160 -148 -363 -148q-211 0 -330.5 154.5t-119.5 433.5zM352 414 q0 -126 77.5 -208.5t199.5 -82.5q137 0 243 100q111 102 111 279q0 127 -77 203.5t-195 76.5q-143 0 -250 -104q-109 -103 -109 -264z" />
<glyph unicode="7" horiz-adv-x="1095" d="M162 997l61 439h930l-18 -136q-525 -537 -678 -1218l-19 -82h-155l18 80q80 351 246 670q173 326 395 538h-594l-41 -291h-145z" />
<glyph unicode="8" horiz-adv-x="1134" d="M82 342q0 146 98 250q98 107 197 131q-69 33 -118.5 104t-49.5 168q0 194 143 310q142 118 344 118q157 0 267 -98t110 -256q0 -61 -19 -115t-46.5 -91t-64.5 -67t-67 -47t-61 -28q70 -21 135 -107q66 -87 66 -200q0 -193 -156 -316q-157 -121 -368 -121q-177 0 -293 101 q-117 102 -117 264zM242 350q0 -104 75.5 -165.5t194.5 -61.5q140 0 244 78q102 79 102 213q0 103 -76 165t-196 62q-143 0 -246 -80q-98 -76 -98 -211zM367 997q0 -97 66 -153t173 -56q132 0 219.5 75t87.5 200q0 100 -69.5 157.5t-167.5 57.5q-111 0 -211 -74 q-98 -70 -98 -207z" />
<glyph unicode="9" horiz-adv-x="1224" d="M133 166l119 108q86 -151 266 -151q175 0 307 166q132 169 166 434q-70 -103 -176 -160t-217 -57q-181 0 -299 112q-121 115 -121 302q0 241 160 389q158 149 362 149q211 0 331 -154.5t120 -433.5q0 -390 -184 -641q-181 -252 -469 -252q-238 0 -365 189zM336 934 q0 -127 77 -204t195 -77q141 0 250 103q109 106 109 266q0 126 -77.5 208.5t-199.5 82.5q-136 0 -246 -101q-108 -102 -108 -278z" />
<glyph unicode=":" horiz-adv-x="595" d="M102 98q0 51 35 86q35 37 86 37t86 -37q37 -35 37 -86t-37 -86q-35 -35 -86 -35t-86 35t-35 86zM215 893q0 51 35 86q35 37 86 37t86 -37q37 -35 37 -86t-37 -86q-35 -35 -86 -35t-86 35t-35 86z" />
<glyph unicode=";" horiz-adv-x="636" d="M-33 -256l264 489h191l-291 -489h-164zM280 893q0 51 35 86q35 37 86 37t86 -37q37 -35 37 -86t-37 -86q-35 -35 -86 -35t-86 35t-35 86z" />
<glyph unicode="&#x3c;" horiz-adv-x="1239" d="M82 418l24 168l1068 442l-23 -160l-911 -366l809 -367l-23 -158z" />
<glyph unicode="=" horiz-adv-x="1331" d="M131 281l21 139h1003l-20 -139h-1004zM184 653l19 142h1003l-18 -142h-1004z" />
<glyph unicode="&#x3e;" horiz-adv-x="1239" d="M66 -23l22 160l911 367l-809 366l23 158l944 -440l-24 -168z" />
<glyph unicode="?" horiz-adv-x="1118" d="M164 1208q206 250 495 250q175 0 287 -106q115 -106 115 -262q0 -178 -126 -301t-347 -158l-29 -199h-158l48 330l51 2q186 7 293.5 97.5t107.5 223.5q0 100 -70 164t-182 64q-235 0 -393 -223zM315 98q0 51 35 86q35 37 86 37t86 -37q37 -35 37 -86t-37 -86 q-35 -35 -86 -35t-86 35t-35 86z" />
<glyph unicode="@" horiz-adv-x="2203" d="M154 406q0 447 311 749q312 303 776 303q370 0 586 -229q217 -227 217 -565q0 -296 -150 -492q-148 -195 -335 -195q-167 0 -191 164q-150 -164 -379 -164q-185 0 -299 129q-112 127 -112 322q0 247 157 424q156 176 389 176q201 0 316 -158l18 134h152l-105 -740 q-18 -147 84 -147q81 -3 154 81t112.5 209t36.5 246q0 293 -172 480q-168 186 -493 186q-395 0 -662 -264q-264 -261 -264 -637q0 -306 199 -502q200 -197 536 -197q206 0 404 74l-21 -143q-186 -70 -403 -70q-391 0 -627 236q-235 235 -235 590zM733 440q0 -143 75 -233 t202 -90q167 0 278 129q111 132 111 315q0 143 -76 233.5t-205 90.5q-169 0 -276 -131q-109 -130 -109 -314z" />
<glyph unicode="A" horiz-adv-x="1413" d="M-14 0l764 1436h176l356 -1436h-164l-84 330h-700l-174 -330h-174zM416 479h581l-186 756z" />
<glyph unicode="B" horiz-adv-x="1349" d="M92 0l203 1436h526q205 0 326 -94t121 -259q0 -111 -64.5 -206.5t-171.5 -145.5q83 -40 130.5 -118.5t47.5 -168.5q0 -212 -145.5 -328t-398.5 -116h-574zM268 147h426q163 0 261 77t98 220q0 102 -76.5 157.5t-202.5 55.5h-434zM360 805h402q154 0 249 72.5t95 205.5 q0 102 -74 153.5t-205 51.5h-399z" />
<glyph unicode="C" horiz-adv-x="1433" d="M115 635q0 339 237 582q238 241 586 241q336 0 502 -246l-117 -106q-142 207 -405 207q-265 0 -455 -199q-191 -200 -191 -475q0 -227 134 -373q131 -143 354 -143q280 0 477 215l94 -125q-242 -236 -592 -236q-276 0 -452 191q-172 190 -172 467z" />
<glyph unicode="D" horiz-adv-x="1423" d="M92 0l203 1436h389q109 0 207 -21.5t187 -69.5t153.5 -119t102.5 -178t38 -239q0 -178 -52 -319.5t-137.5 -231.5t-203 -149.5t-240.5 -84t-258 -24.5h-389zM268 147h254q272 0 469 150q102 77 159.5 210.5t57.5 307.5q0 246 -149 359q-147 114 -379 114h-252z" />
<glyph unicode="E" horiz-adv-x="1257" d="M92 0l203 1436h940l-23 -148h-784l-68 -483h762l-20 -148h-762l-72 -510h785l-21 -147h-940z" />
<glyph unicode="F" d="M92 0l203 1436h893l-23 -148h-737l-68 -483h693l-21 -148h-692l-92 -657h-156z" />
<glyph unicode="G" horiz-adv-x="1490" d="M115 637q0 344 241 582q242 239 582 239q336 0 502 -246l-117 -106q-142 207 -405 207q-265 0 -455 -199q-191 -200 -191 -475q0 -222 134 -371q136 -145 354 -145q245 0 420 156l41 288h-398l21 148h549l-72 -506q-232 -232 -582 -232q-273 0 -448 193 q-176 194 -176 467z" />
<glyph unicode="H" horiz-adv-x="1419" d="M92 0l203 1436h156l-91 -631h781l90 631h155l-202 -1436h-156l92 657h-780l-92 -657h-156z" />
<glyph unicode="I" horiz-adv-x="483" d="M92 0l203 1436h156l-203 -1436h-156z" />
<glyph unicode="J" horiz-adv-x="989" d="M-8 201l117 100q38 -80 111.5 -129t164.5 -49q254 0 301 323l139 990h156l-143 -1020q-30 -205 -148.5 -322t-316.5 -117q-121 0 -227 64t-154 160z" />
<glyph unicode="K" horiz-adv-x="1230" d="M47 0l203 1436h158l-115 -815l770 815h197l-590 -627l409 -809h-168l-356 694l-297 -315l-53 -379h-158z" />
<glyph unicode="L" horiz-adv-x="1099" d="M92 0l203 1436h156l-183 -1289h699l-21 -147h-854z" />
<glyph unicode="M" horiz-adv-x="1634" d="M92 0l203 1436h145l369 -940l635 940h158l-203 -1436h-156l158 1110l-533 -793h-155l-310 793l-155 -1110h-156z" />
<glyph unicode="N" horiz-adv-x="1458" d="M92 0l203 1436h160l647 -1188l168 1188h157l-202 -1436h-162l-647 1184l-168 -1184h-156z" />
<glyph unicode="O" horiz-adv-x="1619" d="M115 625q0 351 241 592t584 241q277 0 451 -186t174 -463v-19q-1 -154 -61 -300q-64 -154 -174 -268q-111 -112 -266 -180q-148 -65 -309 -65h-14q-270 0 -450 189q-176 188 -176 459zM272 639q0 -225 134 -371q133 -145 354 -145q276 0 463 196q188 200 188 480 q0 223 -133 368q-134 146 -350 146q-277 0 -467 -199q-189 -198 -189 -475z" />
<glyph unicode="P" horiz-adv-x="1247" d="M92 0l203 1436h500q211 0 338 -115t127 -295q0 -233 -157 -365.5t-437 -132.5h-344l-74 -528h-156zM342 674h367q182 0 287.5 91.5t105.5 260.5q0 124 -82 193t-225 69h-367z" />
<glyph unicode="Q" horiz-adv-x="1667" d="M115 625q0 351 241 592t584 241q277 0 451 -186t174 -463q0 -338 -228 -578l150 -174l-107 -94l-149 174q-216 -160 -490 -160q-270 0 -450 189q-176 188 -176 459zM272 639q0 -225 134 -371q133 -145 354 -145q208 0 377 123l-154 178l109 94l149 -176q170 194 170 457 q0 223 -133 368q-134 146 -350 146q-277 0 -467 -199q-189 -198 -189 -475z" />
<glyph unicode="R" horiz-adv-x="1329" d="M92 0l203 1436h500q213 0 340 -115q125 -113 125 -295q0 -188 -110.5 -314t-303.5 -165l295 -547h-166l-285 528h-368l-74 -528h-156zM342 674h367q182 0 287.5 91.5t105.5 260.5q0 124 -82 193t-225 69h-367z" />
<glyph unicode="S" horiz-adv-x="1306" d="M78 240l119 108q65 -103 179.5 -164t256.5 -61q162 0 274 74q111 76 111 209q0 182 -266 231l-156 29q-173 30 -273 124.5t-100 245.5q0 194 162 307q165 115 377 115q307 0 481 -219l-115 -109q-148 183 -389 183q-150 0 -254 -78q-102 -77 -102 -197q0 -174 270 -221 l119 -20q192 -32 298 -133.5t106 -253.5q0 -193 -154 -314q-152 -119 -412 -119q-325 0 -532 263z" />
<glyph unicode="T" horiz-adv-x="1200" d="M178 1288l21 148h1061l-21 -148h-459l-180 -1288h-156l181 1288h-447z" />
<glyph unicode="U" horiz-adv-x="1368" d="M141 465q0 71 9 121l120 850h158l-123 -875q-8 -52 -8 -92q0 -158 91 -252t253 -94q189 0 298.5 117t139.5 323l123 873h158l-125 -893q-37 -264 -193.5 -415t-410.5 -151q-227 0 -359 138q-131 137 -131 350z" />
<glyph unicode="V" horiz-adv-x="1267" d="M162 1436h157l267 -1248l612 1248h170l-717 -1436h-176z" />
<glyph unicode="W" horiz-adv-x="1816" d="M152 1436h165l148 -1200l475 1200h186l144 -1200l479 1200h178l-600 -1436h-174l-149 1180l-482 -1180h-176z" />
<glyph unicode="X" horiz-adv-x="1333" d="M-4 0l598 735l-369 701h185l297 -574l460 574h201l-569 -701l393 -735h-184l-320 610l-491 -610h-201z" />
<glyph unicode="Y" horiz-adv-x="1183" d="M178 1436h164l276 -703l469 703h181l-588 -856l-82 -580h-156l82 580z" />
<glyph unicode="Z" horiz-adv-x="1271" d="M57 0l21 139l975 1149h-811l22 148h1012l-21 -140l-979 -1149h811l-20 -147h-1010z" />
<glyph unicode="[" horiz-adv-x="739" d="M59 -397l258 1833h484l-21 -148h-325l-217 -1538h325l-20 -147h-484z" />
<glyph unicode="\" horiz-adv-x="817" d="M164 1436h147l404 -1436h-150z" />
<glyph unicode="]" horiz-adv-x="739" d="M-61 -397l20 147h326l217 1538h-326l21 148h483l-258 -1833h-483z" />
<glyph unicode="^" horiz-adv-x="1271" d="M143 700l543 736h156l340 -736h-164l-273 594l-440 -594h-162z" />
<glyph unicode="_" horiz-adv-x="1167" d="M-10 -397l20 141h934l-20 -141h-934z" />
<glyph unicode="`" d="M469 1436h199l149 -269h-151z" />
<glyph unicode="a" horiz-adv-x="1130" d="M61 432q0 242 146 420q147 176 366 176q198 0 287 -154l19 130h151l-141 -1004h-152l15 109q-120 -132 -310 -132q-168 0 -276 129q-105 132 -105 326zM219 432q0 -142 68.5 -228.5t185.5 -86.5q146 0 246 127q98 128 98 313q0 144 -69 236t-181 92q-147 0 -248 -131 q-100 -126 -100 -322z" />
<glyph unicode="b" horiz-adv-x="1236" d="M92 0l203 1436h151l-75 -545q131 137 336 137q185 0 301 -131q118 -127 118 -322q0 -255 -159 -428q-156 -170 -400 -170q-102 0 -183 45.5t-124 124.5l-20 -147h-148zM305 442q0 -145 75 -234t204 -89q168 0 276 129q109 130 109 315q0 144 -74.5 233t-202.5 89 q-167 0 -278 -129q-109 -130 -109 -314z" />
<glyph unicode="c" horiz-adv-x="1116" d="M111 436q0 240 170 416q173 176 407 176q240 0 363 -178l-117 -100q-95 135 -254 135q-173 0 -293 -129q-121 -127 -121 -312q0 -149 82.5 -237t229.5 -88q171 0 299 137l61 -131q-133 -148 -381 -148q-194 0 -321 127q-125 125 -125 332z" />
<glyph unicode="d" horiz-adv-x="1236" d="M109 428q0 254 157 428q156 172 391 172q204 0 314 -168l82 576h151l-203 -1436h-145l16 127q-150 -150 -354 -150q-181 0 -295 132t-114 319zM266 440q0 -143 75 -232t202 -89q167 0 278 129t111 313q0 143 -76 233.5t-205 90.5q-169 0 -276 -131q-109 -130 -109 -314z " />
<glyph unicode="e" d="M109 418q0 247 151 430q149 180 387 180q197 0 289 -127q94 -125 94 -301q0 -71 -12 -125l-4 -20h-748q-2 -10 -2 -41q0 -139 77 -217t214 -78q177 0 309 147l92 -106q-177 -183 -419 -183q-197 0 -312.5 121t-115.5 320zM291 590h590v19q1 124 -61 197q-66 79 -189 79 q-124 0 -213 -80.5t-127 -214.5z" />
<glyph unicode="f" horiz-adv-x="677" d="M96 864l21 140h164l10 75q25 184 123.5 270.5t277.5 86.5l56 -2l-19 -138h-53q-110 0 -163 -51t-71 -166l-10 -75h234l-21 -140h-233l-121 -864h-152l121 864h-164z" />
<glyph unicode="g" horiz-adv-x="1214" d="M53 -197l113 99q103 -183 295 -183q158 0 255.5 94t121.5 257l12 94q-123 -141 -346 -141q-167 0 -279 127q-110 128 -110 307q0 242 157 407q156 164 373 164q207 0 309 -164l19 140h147l-131 -943q-32 -225 -176 -353t-364 -128q-155 0 -256 76q-98 71 -140 147z M270 469q0 -135 75 -219t194 -84q154 0 262 117q110 119 110 295q0 137 -75.5 222t-196.5 85q-155 0 -262 -119q-107 -116 -107 -297z" />
<glyph unicode="h" horiz-adv-x="1144" d="M92 0l203 1436h151l-75 -543q52 58 139 96.5t172 38.5q168 0 265 -94t97 -258q0 -59 -8 -103l-80 -573h-153l84 596q4 28 4 66q0 108 -57 166.5t-162 58.5q-146 0 -240 -103.5t-119 -285.5l-69 -498h-152z" />
<glyph unicode="i" horiz-adv-x="509" d="M123 0l141 1004h152l-142 -1004h-151zM276 1362q5 34 31 59q25 25 58.5 30t62.5 -6.5t49.5 -39.5t20.5 -64q0 -45 -33 -77.5t-80 -32.5h-9q-28 0 -52 17q-28 20 -40 50q-9 21 -9 45q0 9 1 19z" />
<glyph unicode="j" horiz-adv-x="569" d="M-160 -403l19 137q45 -2 90 -2q90 0 129 40.5t53 141.5l154 1090h149l-155 -1115q-23 -158 -103 -227.5t-231 -69.5zM296 1321q-2 10 -2 19q0 23 8 44q12 29 39 49.5t62 20.5q47 0 80 -33t33 -80q0 -35 -20.5 -62t-49.5 -39q-21 -8 -44 -8q-9 0 -19 2q-34 4 -59 28 q-24 25 -28 59z" />
<glyph unicode="k" horiz-adv-x="1095" d="M92 0l203 1436h151l-129 -936l533 504h199l-457 -431l328 -573h-175l-266 467l-196 -184l-39 -283h-152z" />
<glyph unicode="l" horiz-adv-x="479" d="M92 0l203 1436h151l-202 -1436h-152z" />
<glyph unicode="m" horiz-adv-x="1751" d="M92 0l141 1004h148l-16 -121q49 64 127.5 104.5t166.5 40.5q98 0 170.5 -46.5t108.5 -129.5q126 176 344 176q165 0 249.5 -90.5t84.5 -257.5q0 -68 -8 -117l-80 -563h-152l84 596q6 41 6 76q0 215 -198 215q-124 0 -203 -87t-102 -247l-78 -553h-152l82 586q6 47 6 84 q0 217 -188 217q-126 0 -209 -95.5t-107 -259.5l-73 -532h-152z" />
<glyph unicode="n" horiz-adv-x="1179" d="M92 0l141 1004h148l-16 -121q52 64 139.5 104.5t177.5 40.5q168 0 265 -94t97 -258q0 -59 -8 -103l-80 -573h-153l84 596q4 28 4 66q0 108 -57 166.5t-162 58.5q-146 0 -240 -103.5t-119 -285.5l-69 -498h-152z" />
<glyph unicode="o" horiz-adv-x="1245" d="M111 446q0 247 161 414q162 168 402 168q207 0 332 -137q127 -136 127 -334q0 -244 -164 -414q-163 -166 -404 -166q-205 0 -332 136q-122 134 -122 333zM266 449q0 -143 86 -238q89 -92 223 -92q170 0 285 127t115 309q0 144 -86 236q-85 94 -225 94q-170 0 -285 -127 q-113 -125 -113 -309z" />
<glyph unicode="p" horiz-adv-x="1236" d="M37 -397l196 1401h146l-17 -127q149 149 355 149q180 0 295 -133q114 -132 114 -318q0 -254 -157 -428q-156 -172 -391 -172q-204 0 -314 168l-76 -540h-151zM303 442q0 -143 76 -233t205 -90q168 0 276 129q109 133 109 315q0 143 -75 232.5t-202 89.5q-167 0 -278 -129 t-111 -314z" />
<glyph unicode="q" horiz-adv-x="1236" d="M111 428q0 255 157 426q159 172 402 172q102 0 183 -45.5t124 -124.5l20 148h148l-201 -1401h-151l73 510q-132 -138 -336 -138q-183 0 -303 129q-116 131 -116 324zM268 440q0 -143 74.5 -232t202.5 -89q168 0 276 129q111 129 111 313q0 145 -75 234.5t-204 89.5 q-170 0 -278 -129q-107 -128 -107 -316z" />
<glyph unicode="r" horiz-adv-x="724" d="M92 0l141 1004h148l-19 -134q74 80 155.5 114t193.5 34q31 0 45 -2l-21 -146q-10 2 -35 2q-180 0 -272.5 -102t-124.5 -342l-59 -428h-152z" />
<glyph unicode="s" horiz-adv-x="991" d="M51 170l109 100q48 -70 127 -111.5t166 -41.5q113 0 175 43t62 121q0 103 -149 137l-125 31q-123 29 -189.5 100t-66.5 174q0 140 106 221q110 84 260 84q223 0 355 -164l-111 -104q-109 127 -252 127q-88 0 -145.5 -44.5t-57.5 -113.5q0 -48 37 -84t103 -49l141 -35 q248 -61 248 -268q0 -142 -112.5 -229t-293.5 -87q-124 0 -231 58q-106 57 -156 135z" />
<glyph unicode="t" horiz-adv-x="700" d="M96 864l21 140h164l38 280h152l-39 -280h234l-21 -140h-233l-78 -547q-6 -37 -6 -67q0 -61 30.5 -88t104.5 -27l80 2l-19 -137q-50 -4 -90 -4q-256 0 -256 240q0 36 6 79l76 549h-164z" />
<glyph unicode="u" horiz-adv-x="1136" d="M117 326q0 67 8 116l78 562h149l-82 -590q-6 -41 -6 -74q0 -219 211 -219q144 0 231.5 100t112.5 285l70 498h153l-141 -1004h-145l16 117q-128 -140 -323 -140q-159 0 -245.5 93t-86.5 256z" />
<glyph unicode="v" horiz-adv-x="1036" d="M127 1004h160l180 -820l410 820h172l-523 -1004h-159z" />
<glyph unicode="w" horiz-adv-x="1579" d="M127 1004h160l114 -838l349 838h204l115 -838l348 838h172l-440 -1004h-188l-127 829l-359 -829h-190z" />
<glyph unicode="x" horiz-adv-x="1050" d="M-2 0l432 516l-266 488h176l195 -375l303 375h188l-405 -488l288 -516h-176l-217 406l-330 -406h-188z" />
<glyph unicode="y" horiz-adv-x="1105" d="M127 1004h164l213 -834l440 834h174l-758 -1401h-172l209 393z" />
<glyph unicode="z" horiz-adv-x="1032" d="M57 0l19 129l651 735h-526l20 140h729l-18 -130l-658 -735h578l-21 -139h-774z" />
<glyph unicode="{" horiz-adv-x="854" d="M61 446l21 148h233l72 514q21 149 111.5 238.5t244.5 89.5h172l-20 -146h-145q-178 0 -205 -188l-164 -1163q-27 -189 151 -189h146l-21 -147h-172q-154 0 -218.5 89t-43.5 238l72 516h-234z" />
<glyph unicode="|" horiz-adv-x="804" d="M201 -397l258 1833h151l-258 -1833h-151z" />
<glyph unicode="}" horiz-adv-x="854" d="M-61 -397l20 145h145q178 0 205 189l164 1163q27 188 -151 188h-146l21 148h172q154 0 218.5 -89.5t43.5 -238.5l-72 -516h234l-21 -148h-233l-72 -514q-21 -149 -111.5 -238t-244.5 -89h-172z" />
<glyph unicode="~" horiz-adv-x="1013" d="M139 420q6 112 63 179t150 67q57 0 121 -31l121 -55q61 -27 84 -27q75 0 90 100h127q-6 -111 -63 -178t-148 -67q-56 0 -123 30l-119 58q-70 24 -86 24q-73 0 -88 -100h-129z" />
<glyph unicode="&#xa1;" horiz-adv-x="595" d="M96 -397l135 968h158l-135 -968h-158zM244 903q0 51 37.5 88t91.5 37q41 0 67.5 -27.5t26.5 -68.5q0 -51 -38 -89t-89 -38q-43 0 -69.5 27.5t-26.5 70.5z" />
<glyph unicode="&#xa2;" horiz-adv-x="1116" d="M111 436q0 214 141 381q140 168 348 203l31 217h151l-30 -213q188 -20 299 -174l-117 -100q-76 110 -203 131l-106 -760q141 15 252 135l61 -131q-118 -127 -334 -145l-29 -213h-151l31 221q-156 31 -250 151.5t-94 296.5zM266 444q0 -118 55 -201t154 -112l105 741 q-139 -35 -226 -153q-88 -119 -88 -275z" />
<glyph unicode="&#xa3;" horiz-adv-x="1269" d="M57 0l21 147h282l-41 519h-167l18 139h139q-2 18 -2 106q0 146 49 259.5t131 172.5q152 115 332 115q250 0 383 -219l-125 -111q-95 185 -278 185q-154 0 -244 -104.5t-90 -282.5q0 -98 2 -121h407l-18 -139h-379l41 -519h397l41 291h140l-62 -438h-977z" />
<glyph unicode="&#xa5;" horiz-adv-x="1230" d="M133 299l21 139h387l22 164h-387l19 141h331l-313 693h172l285 -645l442 645h168l-492 -693h338l-18 -141h-389l-23 -164h391l-20 -139h-391l-43 -299h-156l43 299h-387z" />
<glyph unicode="&#xa6;" horiz-adv-x="804" d="M201 -397l104 747h152l-105 -747h-151zM352 688l107 748h151l-106 -748h-152z" />
<glyph unicode="&#xa7;" horiz-adv-x="1284" d="M100 -135l125 102q102 -243 338 -243q133 0 206 58.5t73 158.5q0 125 -180 192l-226 82q-136 48 -213.5 138.5t-77.5 209.5q0 200 199 338q-49 73 -49 174q0 167 129 275q132 108 324 108q131 0 230.5 -61.5t156.5 -163.5l-127 -111q-39 88 -115.5 140.5t-173.5 52.5 q-114 0 -190 -60t-76 -153q0 -123 155 -187l195 -79q161 -64 240 -152t79 -209q0 -186 -182 -330q61 -76 61 -180q0 -156 -129 -270q-130 -115 -331 -115q-155 0 -267.5 74.5t-173.5 210.5zM303 584q0 -73 52 -125.5t161 -98.5l326 -133q119 82 119 219q0 145 -207 234 l-314 133q-57 -38 -97 -103.5t-40 -125.5z" />
<glyph unicode="&#xa8;" d="M387 1346q0 44 32.5 76t76.5 32t76 -32t32 -76t-32 -76.5t-76 -32.5q-45 0 -77 31t-32 78zM758 1346q0 34 19.5 61t47.5 38.5t60.5 6t56.5 -30.5q25 -24 30.5 -56.5t-6.5 -60.5t-39 -47.5t-61 -19.5q-47 0 -77.5 31t-30.5 78z" />
<glyph unicode="&#xa9;" horiz-adv-x="1691" d="M139 639q0 336 248 578q247 241 592 241q274 0 453 -194q180 -192 180 -471q0 -339 -248 -578q-250 -238 -594 -238q-276 0 -455 191q-176 191 -176 471zM272 641q0 -230 144 -383q146 -152 372 -152q278 0 484 203q207 204 207 484q0 226 -146 381q-143 155 -372 155 q-281 0 -486 -205q-203 -203 -203 -483zM481 670q0 189 135 321q136 133 326 133q192 0 287 -139l-101 -86q-78 100 -192 100q-130 0 -221 -98q-90 -101 -90 -227q0 -107 59.5 -173.5t167.5 -66.5q137 0 233 96l66 -106q-52 -52 -137 -84.5t-180 -32.5q-150 0 -252 105 q-101 104 -101 258z" />
<glyph unicode="&#xaa;" horiz-adv-x="839" d="M158 883q0 122 94 192q97 72 221 72q85 0 180 -31l9 51q27 172 -144 172q-132 0 -201 -118l-77 86q106 151 299 151q137 0 205.5 -75.5t48.5 -213.5l-66 -469h-129l10 70q-95 -86 -233 -86q-95 0 -156 54.5t-61 144.5zM291 899q0 -44 31.5 -71t85.5 -27q123 0 217 104 l12 92q-82 33 -162 33q-81 0 -132.5 -36t-51.5 -95z" />
<glyph unicode="&#xab;" horiz-adv-x="1114" d="M68 502l350 502h168l-355 -502l215 -502h-167zM522 502l350 502h168l-354 -502l215 -502h-168z" />
<glyph unicode="&#xac;" horiz-adv-x="1284" d="M133 467l21 139h981l-62 -432h-139l41 293h-842z" />
<glyph unicode="&#xad;" horiz-adv-x="1028" d="M158 467l20 139h701l-21 -139h-700z" />
<glyph unicode="&#xae;" horiz-adv-x="1349" d="M164 834q0 255 188 440q187 184 445 184q219 0 356 -149q139 -148 139 -361q0 -257 -190 -438q-191 -182 -449 -182q-213 0 -352 145q-137 146 -137 361zM295 836q0 -164 102 -275q105 -108 267 -108q200 0 348 145q147 144 147 348q0 167 -104 277t-269 110 q-199 0 -346 -147q-145 -145 -145 -350zM508 653l72 514h231q73 0 117.5 -42.5t44.5 -110.5q0 -61 -36.5 -112.5t-98.5 -76.5l100 -172h-121l-88 158h-92l-23 -158h-106zM649 905h96q123 0 123 99q0 73 -98 73h-96z" />
<glyph unicode="&#xaf;" d="M440 1296l21 140h467l-21 -140h-467z" />
<glyph unicode="&#xb0;" horiz-adv-x="839" d="M190 1108q0 145 103 248q105 102 260 102q121 0 197.5 -78.5t76.5 -197.5q0 -148 -102 -250q-103 -103 -260 -103q-118 0 -196.5 80t-78.5 199zM332 1120q0 -69 42 -113t109 -44q83 0 143 59.5t60 144.5q0 69 -42.5 114.5t-108.5 45.5q-85 0 -144 -60.5t-59 -146.5z" />
<glyph unicode="&#xb1;" horiz-adv-x="1331" d="M72 -139l20 139h1004l-21 -139h-1003zM176 598l19 139h426l61 430h145l-61 -430h432l-18 -139h-432l-62 -434h-145l61 434h-426z" />
<glyph unicode="&#xb2;" horiz-adv-x="849" d="M152 631l4 24q21 136 97.5 231t231.5 167l23 10q172 79 172 176q0 45 -36 72.5t-97 27.5q-137 0 -232 -141l-77 90q55 80 138.5 125t184.5 45q109 0 180.5 -62.5t71.5 -158.5q0 -154 -238 -281l-69 -36q-83 -43 -121.5 -79t-58.5 -89h407l-16 -121h-565z" />
<glyph unicode="&#xb3;" horiz-adv-x="813" d="M135 750l92 81q67 -104 185 -104q76 0 126 38.5t50 100.5q0 115 -168 115h-64l19 121h49q91 0 144 38.5t53 102.5q0 45 -34.5 70.5t-86.5 25.5q-106 0 -195 -92l-76 86q113 125 287 125q104 0 172 -58.5t68 -150.5q0 -69 -43 -123t-99 -75q48 -21 78.5 -67t30.5 -105 q0 -129 -96 -201q-97 -72 -228 -72q-80 0 -153 39.5t-111 104.5z" />
<glyph unicode="&#xb4;" d="M537 1167l223 269h198l-270 -269h-151z" />
<glyph unicode="&#xb5;" horiz-adv-x="1167" d="M37 -397l196 1401h152l-84 -605q-19 -135 34.5 -206.5t172.5 -71.5q144 0 231.5 100t112.5 285l70 498h151l-141 -1004h-148l19 127q-132 -150 -326 -150q-148 0 -223 93l-66 -467h-151z" />
<glyph unicode="&#xb6;" horiz-adv-x="1402" d="M119 922q0 229 166 370q166 144 430 144h655l-258 -1833h-156l238 1693h-154l-237 -1693h-158l129 925h-188q-216 0 -341.5 106.5t-125.5 287.5z" />
<glyph unicode="&#xb7;" horiz-adv-x="761" d="M252 535q0 51 35 86q35 37 86 37t86 -37q37 -35 37 -86t-37 -86q-35 -35 -86 -35t-86 35t-35 86z" />
<glyph unicode="&#xb8;" horiz-adv-x="1116" d="M297 -281l166 269h151l-153 -269h-164z" />
<glyph unicode="&#xb9;" horiz-adv-x="790" d="M180 631l17 119h204l72 512q-76 -52 -211 -52l17 117q169 3 231 109h121l-96 -686h196l-16 -119h-535z" />
<glyph unicode="&#xba;" horiz-adv-x="985" d="M178 1022q0 176 135 305q134 131 314 131q146 0 239 -100q97 -102 97 -246q0 -172 -136 -305q-132 -129 -309 -129q-150 0 -244 98q-96 104 -96 246zM313 1030q0 -101 60 -164t162 -63q125 0 208 86q86 89 86 215q0 101 -61 165t-160 64q-129 0 -211 -88 q-84 -90 -84 -215z" />
<glyph unicode="&#xbb;" horiz-adv-x="1114" d="M72 1004h168l350 -502l-211 -502h-168l215 502zM528 1004h168l351 -502l-211 -502h-168l215 502z" />
<glyph unicode="&#xbc;" horiz-adv-x="1916" d="M180 631l17 119h204l72 512q-76 -52 -211 -52l17 117q169 3 231 109h121l-96 -686h196l-16 -119h-535zM432 0l1079 1436h164l-1077 -1436h-166zM1118 166l15 106l471 523h127l-72 -510h108l-16 -119h-109l-22 -166h-131l22 166h-393zM1284 285h244l45 319z" />
<glyph unicode="&#xbd;" horiz-adv-x="1994" d="M180 631l17 119h204l72 512q-76 -52 -211 -52l17 117q169 3 231 109h121l-96 -686h196l-16 -119h-535zM432 0l1079 1436h164l-1077 -1436h-166zM1227 -23l4 25q21 136 97.5 230.5t232.5 166.5l22 11q172 79 172 176q0 45 -36 72.5t-97 27.5q-136 0 -231 -141l-78 90 q55 80 138.5 125t184.5 45q109 0 180.5 -62.5t71.5 -158.5q0 -155 -237 -281l-70 -37q-83 -43 -121.5 -79t-58.5 -89h407l-16 -121h-565z" />
<glyph unicode="&#xbe;" horiz-adv-x="1777" d="M135 750l92 81q67 -104 185 -104q76 0 126 38.5t50 100.5q0 115 -168 115h-64l19 121h49q91 0 144 38.5t53 102.5q0 45 -34.5 70.5t-86.5 25.5q-106 0 -195 -92l-76 86q113 125 287 125q104 0 172 -58.5t68 -150.5q0 -69 -43 -123t-99 -75q48 -21 78.5 -67t30.5 -105 q0 -129 -96 -201q-97 -72 -228 -72q-80 0 -153 39.5t-111 104.5zM356 0l1080 1436h163l-1077 -1436h-166zM1001 166l15 106l471 523h127l-72 -510h109l-17 -119h-108l-23 -166h-131l23 166h-394zM1167 285h244l45 319z" />
<glyph unicode="&#xbf;" horiz-adv-x="1118" d="M51 -82q0 180 125.5 305t345.5 162l27 186h160l-45 -317l-52 -2q-188 -7 -295.5 -93.5t-107.5 -217.5q0 -98 69 -155.5t185 -57.5q237 0 393 221l88 -115q-208 -254 -502 -254q-178 0 -284.5 90.5t-106.5 247.5zM551 891q0 55 42 96t99 41q44 0 74.5 -31.5t30.5 -76.5 q0 -55 -42 -96.5t-98 -41.5q-47 0 -76.5 30.5t-29.5 78.5z" />
<glyph unicode="&#xc0;" horiz-adv-x="1413" d="M8 0l764 1436h176l357 -1436h-164l-84 330h-701l-174 -330h-174zM438 479h582l-186 756zM618 1786h211l158 -211h-174z" />
<glyph unicode="&#xc1;" horiz-adv-x="1413" d="M8 0l764 1436h176l357 -1436h-164l-84 330h-701l-174 -330h-174zM438 479h582l-186 756zM721 1575l215 211h211l-250 -211h-176z" />
<glyph unicode="&#xc2;" horiz-adv-x="1413" d="M8 0l764 1436h176l357 -1436h-164l-84 330h-701l-174 -330h-174zM438 479h582l-186 756zM559 1575l225 211h199l170 -211h-160l-114 127l-154 -127h-166z" />
<glyph unicode="&#xc3;" horiz-adv-x="1413" d="M8 0l764 1436h176l357 -1436h-164l-84 330h-701l-174 -330h-174zM438 479h582l-186 756zM578 1575q13 98 62.5 154.5t119.5 56.5q46 0 86 -19l57 -26q47 -21 72 -21q60 0 72 66h116q-13 -98 -62.5 -154.5t-119.5 -56.5q-38 0 -82 20l-59 25q-44 20 -76 20q-55 0 -70 -65 h-116z" />
<glyph unicode="&#xc4;" horiz-adv-x="1413" d="M8 0l764 1436h176l357 -1436h-164l-84 330h-701l-174 -330h-174zM438 479h582l-186 756zM602 1683q0 44 32.5 76.5t76.5 32.5t76 -32.5t32 -76.5t-32 -76t-76 -32q-47 0 -78 31.5t-31 76.5zM973 1683q0 45 31 76q32 32 77 32t76 -32q32 -31 32 -76t-32 -77 q-31 -31 -76 -31t-77 31q-31 32 -31 77z" />
<glyph unicode="&#xc5;" horiz-adv-x="1413" d="M8 0l758 1425q-43 19 -68.5 59t-25.5 89q0 84 63 141q66 60 144 60q70 0 114.5 -44.5t44.5 -115.5q0 -55 -32.5 -104t-83.5 -74h26l357 -1436h-164l-84 330h-701l-174 -330h-174zM438 479h582l-186 756zM786 1583q0 -26 17.5 -42.5t44.5 -16.5q32 0 55 23t23 55 q0 26 -17 42.5t-43 16.5q-32 0 -56 -23t-24 -55z" />
<glyph unicode="&#xc6;" horiz-adv-x="1828" d="M-37 0l764 1436h1092l-23 -148h-860l121 -483h649l-20 -148h-592l129 -510h413l-20 -147h-524l-84 330h-701l-176 -330h-168zM389 479h580l-185 756z" />
<glyph unicode="&#xc7;" horiz-adv-x="1433" d="M115 635q0 339 237 582q238 241 586 241q336 0 502 -246l-117 -106q-142 207 -405 207q-265 0 -455 -199q-191 -200 -191 -475q0 -227 134 -373q131 -143 354 -143q280 0 477 215l94 -125q-218 -209 -516 -233l-149 -261h-164l162 263q-251 27 -400 211 q-149 186 -149 442z" />
<glyph unicode="&#xc8;" horiz-adv-x="1245" d="M92 0l203 1436h940l-23 -148h-784l-68 -483h762l-20 -148h-762l-72 -510h785l-21 -147h-940zM553 1786h211l158 -211h-174z" />
<glyph unicode="&#xc9;" horiz-adv-x="1245" d="M92 0l203 1436h940l-23 -148h-784l-68 -483h762l-20 -148h-762l-72 -510h785l-21 -147h-940zM651 1575l215 211h211l-250 -211h-176z" />
<glyph unicode="&#xca;" horiz-adv-x="1245" d="M92 0l203 1436h940l-23 -148h-784l-68 -483h762l-20 -148h-762l-72 -510h785l-21 -147h-940zM494 1575l225 211h199l169 -211h-159l-115 127l-154 -127h-165z" />
<glyph unicode="&#xcb;" horiz-adv-x="1245" d="M92 0l203 1436h940l-23 -148h-784l-68 -483h762l-20 -148h-762l-72 -510h785l-21 -147h-940zM506 1669q0 44 32 76.5t76 32.5t76.5 -32.5t32.5 -76.5t-32.5 -76t-76.5 -32q-45 0 -76.5 30.5t-31.5 77.5zM877 1669q0 34 19.5 61t47.5 39t60.5 6.5t56.5 -30.5 q25 -24 30.5 -56.5t-6.5 -60.5t-39 -47.5t-61 -19.5q-47 0 -77.5 30.5t-30.5 77.5z" />
<glyph unicode="&#xcc;" horiz-adv-x="483" d="M92 0l203 1436h156l-203 -1436h-156zM147 1786h211l158 -211h-174z" />
<glyph unicode="&#xcd;" horiz-adv-x="483" d="M92 0l203 1436h156l-203 -1436h-156zM264 1575l215 211h211l-250 -211h-176z" />
<glyph unicode="&#xce;" horiz-adv-x="483" d="M92 0l203 1436h156l-203 -1436h-156zM94 1575l225 211h199l170 -211h-160l-114 127l-154 -127h-166z" />
<glyph unicode="&#xcf;" horiz-adv-x="483" d="M92 0l203 1436h156l-203 -1436h-156zM113 1673q0 44 32 76.5t76 32.5t76.5 -32.5t32.5 -76.5t-32.5 -76t-76.5 -32q-45 0 -76.5 30.5t-31.5 77.5zM483 1673q0 34 20 61t48 39t60.5 6.5t56.5 -30.5q25 -24 30.5 -56.5t-6.5 -60.5t-39 -47.5t-61 -19.5q-47 0 -78 30.5 t-31 77.5z" />
<glyph unicode="&#xd0;" horiz-adv-x="1470" d="M68 657l20 148h164l90 631h389q109 0 207 -21.5t187 -69.5t153.5 -119t102.5 -178t38 -239q0 -178 -52 -319.5t-137.5 -231.5t-203 -149.5t-240.5 -84t-258 -24.5h-389l92 657h-163zM315 147h254q273 0 469 150q102 77 159.5 210.5t57.5 307.5q0 246 -149 359 q-147 114 -379 114h-252l-67 -483h264l-21 -148h-264z" />
<glyph unicode="&#xd1;" horiz-adv-x="1458" d="M92 0l203 1436h160l647 -1188l168 1188h157l-202 -1436h-162l-647 1184l-168 -1184h-156zM596 1575q13 98 62.5 154.5t119.5 56.5q46 0 86 -19l58 -26q47 -21 71 -21q60 0 72 66h117q-13 -97 -63 -154t-120 -57q-37 0 -81 20l-60 25q-44 20 -76 20q-54 0 -69 -65h-117z " />
<glyph unicode="&#xd2;" horiz-adv-x="1619" d="M115 625q0 351 241 592t584 241q277 0 451 -186t174 -463q4 -164 -60.5 -318.5t-175 -268t-265.5 -181t-323 -64.5q-270 0 -450 189q-176 188 -176 459zM272 639q0 -225 134 -371q133 -145 354 -145q276 0 463 196q188 200 188 480q0 223 -133 368q-134 146 -350 146 q-277 0 -467 -199q-189 -198 -189 -475zM690 1786h211l158 -211h-174z" />
<glyph unicode="&#xd3;" horiz-adv-x="1619" d="M115 625q0 351 241 592t584 241q277 0 451 -186t174 -463q4 -164 -60.5 -318.5t-175 -268t-265.5 -181t-323 -64.5q-270 0 -450 189q-176 188 -176 459zM272 639q0 -225 134 -371q133 -145 354 -145q276 0 463 196q188 200 188 480q0 223 -133 368q-134 146 -350 146 q-277 0 -467 -199q-189 -198 -189 -475zM831 1575l216 211h210l-249 -211h-177z" />
<glyph unicode="&#xd4;" horiz-adv-x="1619" d="M115 625q0 351 241 592t584 241q277 0 451 -186t174 -463q4 -164 -60.5 -318.5t-175 -268t-265.5 -181t-323 -64.5q-270 0 -450 189q-176 188 -176 459zM272 639q0 -225 134 -371q133 -145 354 -145q276 0 463 196q188 200 188 480q0 223 -133 368q-134 146 -350 146 q-277 0 -467 -199q-189 -198 -189 -475zM662 1575l225 211h198l170 -211h-159l-115 127l-154 -127h-165z" />
<glyph unicode="&#xd5;" horiz-adv-x="1619" d="M115 625q0 351 241 592t584 241q277 0 451 -186t174 -463q4 -164 -60.5 -318.5t-175 -268t-265.5 -181t-323 -64.5q-270 0 -450 189q-176 188 -176 459zM272 639q0 -225 134 -371q133 -145 354 -145q276 0 463 196q188 200 188 480q0 223 -133 368q-134 146 -350 146 q-277 0 -467 -199q-189 -198 -189 -475zM678 1575q13 98 62.5 154.5t119.5 56.5q46 0 86 -19l58 -26q47 -21 71 -21q60 0 72 66h117q-13 -97 -63 -154t-120 -57q-38 0 -82 20l-59 25q-44 20 -76 20q-54 0 -69 -65h-117z" />
<glyph unicode="&#xd6;" horiz-adv-x="1619" d="M115 625q0 351 241 592t584 241q277 0 451 -186t174 -463q4 -164 -60.5 -318.5t-175 -268t-265.5 -181t-323 -64.5q-270 0 -450 189q-176 188 -176 459zM272 639q0 -225 134 -371q133 -145 354 -145q276 0 463 196q188 200 188 480q0 223 -133 368q-134 146 -350 146 q-277 0 -467 -199q-189 -198 -189 -475zM678 1673q0 44 32 76.5t76 32.5t76.5 -32.5t32.5 -76.5t-32.5 -76t-76.5 -32q-45 0 -76.5 30.5t-31.5 77.5zM1049 1673q0 34 19.5 61t47.5 39t60.5 6.5t56.5 -30.5q25 -24 30.5 -56.5t-6.5 -60.5t-39 -47.5t-61 -19.5 q-47 0 -77.5 30.5t-30.5 77.5z" />
<glyph unicode="&#xd7;" horiz-adv-x="1163" d="M117 186l368 324l-272 317l104 93l275 -318l358 316l90 -101l-360 -315l276 -324l-106 -92l-279 322l-366 -322z" />
<glyph unicode="&#xd8;" horiz-adv-x="1644" d="M127 625q0 350 242 592q241 241 583 241q194 0 342 -98l105 123l102 -82l-104 -125q180 -183 180 -467q4 -164 -60.5 -318.5t-174.5 -268t-265 -181t-323 -64.5q-203 0 -357 109l-110 -131l-103 82l113 135q-170 182 -170 453zM285 639q0 -209 112 -348l801 952 q-110 70 -258 70q-277 0 -467 -199q-188 -197 -188 -475zM494 203q121 -80 278 -80q276 0 463 196q188 200 188 480q0 217 -125 360z" />
<glyph unicode="&#xd9;" horiz-adv-x="1368" d="M141 465q0 71 9 121l120 850h158l-123 -875q-8 -52 -8 -92q0 -158 91 -252t253 -94q189 0 298.5 117t139.5 323l123 873h158l-125 -893q-37 -264 -193.5 -415t-410.5 -151q-227 0 -359 138q-131 137 -131 350zM610 1786h211l158 -211h-174z" />
<glyph unicode="&#xda;" horiz-adv-x="1368" d="M141 465q0 71 9 121l120 850h158l-123 -875q-8 -52 -8 -92q0 -158 91 -252t253 -94q189 0 298.5 117t139.5 323l123 873h158l-125 -893q-37 -264 -193.5 -415t-410.5 -151q-227 0 -359 138q-131 137 -131 350zM700 1575l215 211h211l-249 -211h-177z" />
<glyph unicode="&#xdb;" horiz-adv-x="1368" d="M141 465q0 71 9 121l120 850h158l-123 -875q-8 -52 -8 -92q0 -158 91 -252t253 -94q189 0 298.5 117t139.5 323l123 873h158l-125 -893q-37 -264 -193.5 -415t-410.5 -151q-227 0 -359 138q-131 137 -131 350zM545 1575l225 211h199l170 -211h-160l-115 127l-153 -127 h-166z" />
<glyph unicode="&#xdc;" horiz-adv-x="1368" d="M141 465q0 71 9 121l120 850h158l-123 -875q-8 -52 -8 -92q0 -158 91 -252t253 -94q189 0 298.5 117t139.5 323l123 873h158l-125 -893q-37 -264 -193.5 -415t-410.5 -151q-227 0 -359 138q-131 137 -131 350zM559 1673q0 44 32.5 76.5t76.5 32.5t76 -32.5t32 -76.5 t-32 -76t-76 -32q-45 0 -77 31t-32 77zM930 1673q0 34 19.5 61t47.5 39t60.5 6.5t56.5 -30.5q25 -24 30.5 -56.5t-6.5 -60.5t-39 -47.5t-61 -19.5q-47 0 -77.5 30.5t-30.5 77.5z" />
<glyph unicode="&#xdd;" horiz-adv-x="1183" d="M178 1436h164l276 -703l469 703h181l-588 -856l-82 -580h-156l82 580zM629 1575l215 211h211l-250 -211h-176z" />
<glyph unicode="&#xde;" horiz-adv-x="1247" d="M92 0l203 1436h154l-33 -246h346q211 0 338 -115t127 -295q0 -233 -157 -365t-437 -132h-344l-41 -283h-156zM309 428h367q182 0 287.5 91.5t105.5 260.5q0 124 -82 193t-225 69h-367z" />
<glyph unicode="&#xdf;" horiz-adv-x="1318" d="M102 0l123 881q37 266 185.5 410.5t392.5 144.5q171 0 291 -105q120 -102 120 -258q0 -109 -56.5 -204.5t-145.5 -143.5q176 -95 176 -293q0 -206 -148 -321q-144 -111 -364 -111h-195l21 139h164q92 0 172 25q85 26 141.5 94t56.5 162q0 107 -81 167t-214 60h-168 l21 139h151q139 0 227.5 73t88.5 204q0 100 -75.5 166.5t-197.5 66.5q-171 0 -275.5 -105.5t-133.5 -309.5l-123 -881h-154z" />
<glyph unicode="&#xe0;" horiz-adv-x="1064" d="M-4 432q0 243 145 420q147 176 367 176q198 0 287 -154l18 130h152l-142 -1004h-151l14 109q-120 -132 -309 -132q-169 0 -277 129q-104 131 -104 326zM154 432q0 -142 68.5 -228.5t185.5 -86.5q145 0 245 127q99 129 99 313q0 144 -69 236t-181 92q-147 0 -248 -131 q-100 -126 -100 -322zM414 1436h198l150 -269h-152z" />
<glyph unicode="&#xe1;" horiz-adv-x="1064" d="M-4 432q0 243 145 420q147 176 367 176q198 0 287 -154l18 130h152l-142 -1004h-151l14 109q-120 -132 -309 -132q-169 0 -277 129q-104 131 -104 326zM154 432q0 -142 68.5 -228.5t185.5 -86.5q145 0 245 127q99 129 99 313q0 144 -69 236t-181 92q-147 0 -248 -131 q-100 -126 -100 -322zM492 1167l223 269h198l-270 -269h-151z" />
<glyph unicode="&#xe2;" horiz-adv-x="1064" d="M-4 432q0 243 145 420q147 176 367 176q198 0 287 -154l18 130h152l-142 -1004h-151l14 109q-120 -132 -309 -132q-169 0 -277 129q-104 131 -104 326zM154 432q0 -142 68.5 -228.5t185.5 -86.5q145 0 245 127q99 129 99 313q0 144 -69 236t-181 92q-147 0 -248 -131 q-100 -126 -100 -322zM317 1167l236 269h199l161 -269h-147l-123 168l-170 -168h-156z" />
<glyph unicode="&#xe3;" horiz-adv-x="1064" d="M-4 432q0 243 145 420q147 176 367 176q198 0 287 -154l18 130h152l-142 -1004h-151l14 109q-120 -132 -309 -132q-169 0 -277 129q-104 131 -104 326zM154 432q0 -142 68.5 -228.5t185.5 -86.5q145 0 245 127q99 129 99 313q0 144 -69 236t-181 92q-147 0 -248 -131 q-100 -126 -100 -322zM348 1225q13 98 62.5 154.5t119.5 56.5q46 0 86 -19l58 -26q47 -21 71 -21q60 0 72 66h117q-13 -98 -62.5 -154.5t-119.5 -56.5q-38 0 -82 20l-60 25q-44 20 -75 20q-55 0 -70 -65h-117z" />
<glyph unicode="&#xe4;" horiz-adv-x="1064" d="M-4 432q0 243 145 420q147 176 367 176q198 0 287 -154l18 130h152l-142 -1004h-151l14 109q-120 -132 -309 -132q-169 0 -277 129q-104 131 -104 326zM154 432q0 -142 68.5 -228.5t185.5 -86.5q145 0 245 127q99 129 99 313q0 144 -69 236t-181 92q-147 0 -248 -131 q-100 -126 -100 -322zM354 1346q0 44 32.5 76t76.5 32t76 -32t32 -76t-32 -76.5t-76 -32.5q-45 0 -77 31t-32 78zM725 1346q0 34 19.5 61t47.5 38.5t60.5 6t56.5 -30.5q25 -24 30.5 -56.5t-6 -60.5t-38.5 -47.5t-61 -19.5q-47 0 -78 31t-31 78z" />
<glyph unicode="&#xe5;" horiz-adv-x="1064" d="M-4 432q0 243 145 420q147 176 367 176q198 0 287 -154l18 130h152l-142 -1004h-151l14 109q-120 -132 -309 -132q-169 0 -277 129q-104 131 -104 326zM154 432q0 -142 68.5 -228.5t185.5 -86.5q145 0 245 127q99 129 99 313q0 144 -69 236t-181 92q-147 0 -248 -131 q-100 -126 -100 -322zM477 1282q0 72 54 124t124 52q62 0 102 -38t40 -99q0 -72 -55.5 -124t-129.5 -52q-57 0 -96 40t-39 97zM578 1292q0 -23 15 -37t38 -14q29 0 48 19.5t19 48.5q0 49 -51 49q-30 0 -49.5 -18.5t-19.5 -47.5z" />
<glyph unicode="&#xe6;" horiz-adv-x="1783" d="M82 244q0 166 133 258q134 94 334 94h227l8 55q14 109 -43.5 172.5t-169.5 63.5q-189 0 -288 -166l-93 98q147 209 404 209q244 0 317 -184q156 184 381 184q197 0 289 -127q94 -125 94 -301q0 -75 -12 -125l-6 -20h-748q-11 -159 65.5 -247.5t223.5 -88.5q171 0 309 147 l92 -96q-193 -193 -432 -193q-258 0 -358 189q-168 -189 -438 -189q-128 0 -208.5 73t-80.5 194zM233 258q0 -67 46 -106t120 -39q110 0 211 55q104 56 152 131q-15 65 -6 156h-232q-134 0 -212.5 -54t-78.5 -143zM934 590h592q10 133 -58.5 214t-193.5 81 q-122 0 -211.5 -80.5t-128.5 -214.5z" />
<glyph unicode="&#xe7;" horiz-adv-x="1116" d="M111 436q0 240 170 416q173 176 407 176q240 0 363 -178l-117 -100q-95 135 -254 135q-173 0 -293 -129q-121 -127 -121 -312q0 -149 82.5 -237t229.5 -88q171 0 299 137l61 -131q-115 -127 -328 -145l-149 -261h-164l164 267q-158 27 -254 149q-96 125 -96 301z" />
<glyph unicode="&#xe8;" d="M109 418q0 247 151 430q149 180 387 180q197 0 289 -127q94 -125 94 -301q0 -71 -12 -125l-4 -20h-748q-2 -10 -2 -41q0 -139 77 -217t214 -78q177 0 309 147l92 -106q-177 -183 -419 -183q-197 0 -312.5 121t-115.5 320zM291 590h590q5 137 -61.5 216t-188.5 79 q-124 0 -213 -80.5t-127 -214.5zM469 1436h199l149 -269h-151z" />
<glyph unicode="&#xe9;" d="M109 418q0 247 151 430q149 180 387 180q197 0 289 -127q94 -125 94 -301q0 -70 -16 -145h-748q-2 -10 -2 -41q0 -139 77 -217t214 -78q177 0 309 147l92 -106q-177 -183 -419 -183q-197 0 -312.5 121t-115.5 320zM291 590h590q5 137 -61.5 216t-188.5 79 q-124 0 -213 -80.5t-127 -214.5zM537 1167l223 269h198l-270 -269h-151z" />
<glyph unicode="&#xea;" d="M109 418q0 247 151 430q149 180 387 180q197 0 289 -127q94 -125 94 -301q0 -70 -16 -145h-748q-2 -10 -2 -41q0 -139 77 -217t214 -78q177 0 309 147l92 -106q-177 -183 -419 -183q-197 0 -312.5 121t-115.5 320zM291 590h590q5 137 -61.5 216t-188.5 79 q-124 0 -213 -80.5t-127 -214.5zM375 1167l235 269h199l162 -269h-148l-123 168l-170 -168h-155z" />
<glyph unicode="&#xeb;" d="M109 418q0 247 151 430q149 180 387 180q197 0 289 -127q94 -125 94 -301q0 -70 -16 -145h-748q-2 -10 -2 -41q0 -139 77 -217t214 -78q177 0 309 147l92 -106q-177 -183 -419 -183q-197 0 -312.5 121t-115.5 320zM291 590h590q5 137 -61.5 216t-188.5 79 q-124 0 -213 -80.5t-127 -214.5zM399 1346q0 44 32.5 76t76.5 32t76 -32t32 -76t-32 -76.5t-76 -32.5q-45 0 -77 31t-32 78zM770 1346q0 34 19.5 61t47.5 38.5t60.5 6t56.5 -30.5q25 -24 30.5 -56.5t-6 -60.5t-38.5 -47.5t-61 -19.5q-47 0 -78 31t-31 78z" />
<glyph unicode="&#xec;" horiz-adv-x="509" d="M106 0l142 1004h151l-141 -1004h-152zM119 1436h198l150 -269h-152z" />
<glyph unicode="&#xed;" horiz-adv-x="509" d="M106 0l142 1004h151l-141 -1004h-152zM223 1167l223 269h199l-270 -269h-152z" />
<glyph unicode="&#xee;" horiz-adv-x="509" d="M47 1167l236 269h198l162 -269h-147l-123 168l-170 -168h-156zM106 0l142 1004h151l-141 -1004h-152z" />
<glyph unicode="&#xef;" horiz-adv-x="552" d="M113 1346q0 44 32 76t76 32t76.5 -32t32.5 -76t-32.5 -76.5t-76.5 -32.5q-45 0 -76.5 31t-31.5 78zM139 0l142 1004h151l-141 -1004h-152zM483 1346q0 34 20 61t48 38.5t60.5 6t56.5 -30.5q25 -24 30.5 -56.5t-6.5 -60.5t-39 -47.5t-61 -19.5q-47 0 -78 31t-31 78z" />
<glyph unicode="&#xf0;" horiz-adv-x="1214" d="M125 406q0 236 166 380q167 144 387 144q117 0 188 -41l-157 282l-254 -122l20 139l176 84l-94 162h170l51 -93l230 117l-21 -139l-151 -78l182 -330q115 -207 115 -395q0 -231 -160 -385t-402 -154q-185 0 -317 117q-129 120 -129 312zM285 410q0 -128 83.5 -207.5 t213.5 -79.5q159 0 272 104q117 105 117 269q0 128 -85 207t-216 79q-160 0 -273 -104q-112 -103 -112 -268z" />
<glyph unicode="&#xf1;" horiz-adv-x="1179" d="M92 0l141 1004h148l-16 -121q52 64 139.5 104.5t177.5 40.5q168 0 265 -94t97 -258q0 -59 -8 -103l-80 -573h-153l84 596q4 28 4 66q0 108 -57 166.5t-162 58.5q-146 0 -240 -103.5t-119 -285.5l-69 -498h-152zM406 1225q13 98 62.5 154.5t119.5 56.5q46 0 86 -19l57 -26 q46 -21 72 -21q59 0 71 66h117q-13 -98 -62.5 -154.5t-119.5 -56.5q-38 0 -82 20l-59 25q-44 20 -76 20q-55 0 -70 -65h-116z" />
<glyph unicode="&#xf2;" horiz-adv-x="1245" d="M111 446q0 247 161 414q162 168 402 168q207 0 332 -137q127 -136 127 -334q0 -244 -164 -414q-163 -166 -404 -166q-205 0 -332 136q-122 134 -122 333zM266 449q0 -143 86 -238q89 -92 223 -92q170 0 285 127t115 309q0 144 -86 236q-85 94 -225 94q-170 0 -285 -127 q-113 -125 -113 -309zM502 1436h198l150 -269h-152z" />
<glyph unicode="&#xf3;" horiz-adv-x="1245" d="M111 446q0 247 161 414q162 168 402 168q207 0 332 -137q127 -136 127 -334q0 -244 -164 -414q-163 -166 -404 -166q-205 0 -332 136q-122 134 -122 333zM266 449q0 -143 86 -238q89 -92 223 -92q170 0 285 127t115 309q0 144 -86 236q-85 94 -225 94q-170 0 -285 -127 q-113 -125 -113 -309zM557 1167l223 269h199l-270 -269h-152z" />
<glyph unicode="&#xf4;" horiz-adv-x="1245" d="M111 446q0 247 161 414q162 168 402 168q207 0 332 -137q127 -136 127 -334q0 -244 -164 -414q-163 -166 -404 -166q-205 0 -332 136q-122 134 -122 333zM266 449q0 -143 86 -238q89 -92 223 -92q170 0 285 127t115 309q0 144 -86 236q-85 94 -225 94q-170 0 -285 -127 q-113 -125 -113 -309zM414 1167l235 269h199l162 -269h-148l-123 168l-170 -168h-155z" />
<glyph unicode="&#xf5;" horiz-adv-x="1245" d="M111 446q0 247 161 414q162 168 402 168q207 0 332 -137q127 -136 127 -334q0 -244 -164 -414q-163 -166 -404 -166q-205 0 -332 136q-122 134 -122 333zM266 449q0 -143 86 -238q89 -92 223 -92q170 0 285 127t115 309q0 144 -86 236q-85 94 -225 94q-170 0 -285 -127 q-113 -125 -113 -309zM432 1225q13 98 62.5 154.5t119.5 56.5q46 0 86 -19l58 -26q46 -21 71 -21q60 0 72 66h117q-13 -98 -62.5 -154.5t-119.5 -56.5q-38 0 -82 20l-60 25q-44 20 -76 20q-54 0 -69 -65h-117z" />
<glyph unicode="&#xf6;" horiz-adv-x="1245" d="M111 446q0 247 161 414q162 168 402 168q207 0 332 -137q127 -136 127 -334q0 -244 -164 -414q-163 -166 -404 -166q-205 0 -332 136q-122 134 -122 333zM266 449q0 -143 86 -238q89 -92 223 -92q170 0 285 127t115 309q0 144 -86 236q-85 94 -225 94q-170 0 -285 -127 q-113 -125 -113 -309zM444 1346q0 44 32.5 76t76.5 32t76.5 -32t32.5 -76t-32.5 -76.5t-76.5 -32.5q-45 0 -77 31t-32 78zM815 1346q0 34 19.5 61t47.5 38.5t60.5 6t56.5 -30.5q25 -24 30.5 -56.5t-6 -60.5t-38.5 -47.5t-61 -19.5q-47 0 -78 31t-31 78z" />
<glyph unicode="&#xf7;" horiz-adv-x="1331" d="M158 440l20 140h1004l-21 -140h-1003zM485 98q0 51 35 86q35 37 86 37t86 -37q37 -35 37 -86t-37 -86q-35 -35 -86 -35t-86 35t-35 86zM598 903q0 51 35 86q35 37 86 37t86 -37q37 -35 37 -86t-37 -86q-35 -35 -86 -35t-86 35t-35 86z" />
<glyph unicode="&#xf8;" horiz-adv-x="1267" d="M123 446q0 246 162 414t401 168q137 0 246 -65l74 88l102 -82l-78 -90q115 -133 115 -322q0 -244 -164 -414q-163 -166 -403 -166q-139 0 -248 68l-78 -92l-102 82l79 96q-106 127 -106 315zM279 449q0 -109 55 -197l497 592q-71 41 -155 41q-170 0 -285 -127 q-112 -124 -112 -309zM428 162q67 -43 160 -43q169 0 284 127t115 309q0 118 -59 201z" />
<glyph unicode="&#xf9;" horiz-adv-x="1120" d="M100 326q0 60 9 116l77 562h150l-82 -590q-6 -41 -6 -74q0 -219 211 -219q144 0 231.5 100t112.5 285l69 498h154l-141 -1004h-146l17 117q-128 -140 -324 -140q-159 0 -245.5 93t-86.5 256zM406 1436h198l150 -269h-152z" />
<glyph unicode="&#xfa;" horiz-adv-x="1120" d="M100 326q0 60 9 116l77 562h150l-82 -590q-6 -41 -6 -74q0 -219 211 -219q144 0 231.5 100t112.5 285l69 498h154l-141 -1004h-146l17 117q-128 -140 -324 -140q-159 0 -245.5 93t-86.5 256zM492 1167l223 269h198l-270 -269h-151z" />
<glyph unicode="&#xfb;" horiz-adv-x="1120" d="M100 326q0 60 9 116l77 562h150l-82 -590q-6 -41 -6 -74q0 -219 211 -219q144 0 231.5 100t112.5 285l69 498h154l-141 -1004h-146l17 117q-128 -140 -324 -140q-159 0 -245.5 93t-86.5 256zM330 1167l235 269h199l162 -269h-148l-123 168l-170 -168h-155z" />
<glyph unicode="&#xfc;" horiz-adv-x="1120" d="M100 326q0 60 9 116l77 562h150l-82 -590q-6 -41 -6 -74q0 -219 211 -219q144 0 231.5 100t112.5 285l69 498h154l-141 -1004h-146l17 117q-128 -140 -324 -140q-159 0 -245.5 93t-86.5 256zM367 1346q0 44 32 76t76 32t76.5 -32t32.5 -76t-32.5 -76.5t-76.5 -32.5 q-45 0 -76.5 31t-31.5 78zM737 1346q0 34 20 61t48 38.5t60.5 6t56.5 -30.5q25 -24 30.5 -56.5t-6.5 -60.5t-39 -47.5t-61 -19.5q-47 0 -78 31t-31 78z" />
<glyph unicode="&#xfd;" horiz-adv-x="1105" d="M127 1004h164l213 -834l440 834h174l-758 -1401h-172l209 393zM549 1167l223 269h199l-271 -269h-151z" />
<glyph unicode="&#xfe;" horiz-adv-x="1236" d="M37 -397l256 1831h151l-77 -557q149 149 350 149q180 0 295 -133q114 -132 114 -318q0 -254 -157 -428q-156 -172 -391 -172q-204 0 -314 168l-76 -540h-151zM305 442q0 -145 75 -234t204 -89q168 0 276 129q109 130 109 315q0 144 -74.5 233t-202.5 89q-167 0 -278 -129 q-109 -130 -109 -314z" />
<glyph unicode="&#xff;" horiz-adv-x="1105" d="M127 1004h164l213 -834l440 834h174l-758 -1401h-172l209 393zM387 1346q0 44 32.5 76t76.5 32t76 -32t32 -76t-32 -76.5t-76 -32.5q-45 0 -77 31t-32 78zM758 1346q0 34 19.5 61t47.5 38.5t60.5 6t56.5 -30.5q25 -24 30.5 -56.5t-6.5 -60.5t-39 -47.5t-61 -19.5 q-47 0 -77.5 31t-30.5 78z" />
<glyph unicode="&#x152;" horiz-adv-x="1871" d="M125 625q0 353 252 581q251 230 616 230h871l-23 -148h-667l-68 -483h643l-20 -148h-644l-71 -510h667l-20 -147h-870q-298 0 -482 172t-184 453zM285 635q0 -227 140.5 -357.5t385.5 -130.5h45l160 1141h-45q-290 0 -488 -180q-198 -177 -198 -473z" />
<glyph unicode="&#x153;" horiz-adv-x="1994" d="M111 436q0 242 174 416q176 176 409 176q264 0 375 -244q75 116 188 180t246 64q102 0 179 -37.5t120 -101t63.5 -136.5t20.5 -155q0 -73 -14 -127l-4 -16h-746q-14 -156 63 -246t224 -90q171 0 309 147l90 -96q-184 -193 -417 -193q-267 0 -381 240q-82 -112 -205 -176 t-258 -64q-193 0 -316 132q-120 132 -120 327zM266 449q0 -144 82.5 -237t216.5 -93q168 0 289 127t121 311q0 146 -83 237t-218 91q-168 0 -289 -127q-119 -125 -119 -309zM1145 590h590q11 134 -57.5 214.5t-192.5 80.5t-213 -80.5t-127 -214.5z" />
<glyph unicode="&#x178;" horiz-adv-x="1183" d="M178 1436h164l276 -703l469 703h181l-588 -856l-82 -580h-156l82 580zM477 1673q0 44 32.5 76.5t76.5 32.5t76 -32.5t32 -76.5t-32 -76t-76 -32q-45 0 -77 31t-32 77zM848 1673q0 34 19.5 61t47.5 39t60.5 6.5t56.5 -30.5q25 -24 30.5 -56.5t-6.5 -60.5t-39 -47.5 t-61 -19.5q-47 0 -77.5 30.5t-30.5 77.5z" />
<glyph unicode="&#x2c6;" d="M365 1167l235 269h199l162 -269h-148l-123 168l-170 -168h-155z" />
<glyph unicode="&#x2dc;" horiz-adv-x="1179" d="M395 1225q13 97 63 154t120 57q46 0 86 -19l57 -26q46 -21 72 -21q59 0 71 66h117q-13 -98 -62.5 -154.5t-119.5 -56.5q-38 0 -82 20l-60 25q-44 20 -75 20q-55 0 -70 -65h-117z" />
<glyph unicode="&#x2000;" horiz-adv-x="896" />
<glyph unicode="&#x2001;" horiz-adv-x="1792" />
<glyph unicode="&#x2002;" horiz-adv-x="896" />
<glyph unicode="&#x2003;" horiz-adv-x="1792" />
<glyph unicode="&#x2004;" horiz-adv-x="597" />
<glyph unicode="&#x2005;" horiz-adv-x="448" />
<glyph unicode="&#x2006;" horiz-adv-x="298" />
<glyph unicode="&#x2007;" horiz-adv-x="298" />
<glyph unicode="&#x2008;" horiz-adv-x="224" />
<glyph unicode="&#x2009;" horiz-adv-x="358" />
<glyph unicode="&#x200a;" horiz-adv-x="99" />
<glyph unicode="&#x2010;" horiz-adv-x="1028" d="M158 467l20 139h701l-21 -139h-700z" />
<glyph unicode="&#x2011;" horiz-adv-x="1028" d="M158 467l20 139h701l-21 -139h-700z" />
<glyph unicode="&#x2012;" horiz-adv-x="1028" d="M158 467l20 139h701l-21 -139h-700z" />
<glyph unicode="&#x2013;" horiz-adv-x="1179" d="M158 467l20 139h864l-20 -139h-864z" />
<glyph unicode="&#x2014;" horiz-adv-x="1751" d="M158 467l20 139h1436l-21 -139h-1435z" />
<glyph unicode="&#x2018;" horiz-adv-x="536" d="M-51 1436h190l256 -469h-164z" />
<glyph unicode="&#x2019;" horiz-adv-x="536" d="M147 967l256 469h191l-283 -469h-164z" />
<glyph unicode="&#x201a;" horiz-adv-x="548" d="M-78 -236l256 469h191l-283 -469h-164z" />
<glyph unicode="&#x201c;" horiz-adv-x="913" d="M-45 1436h190l256 -469h-163zM334 1436h190l256 -469h-164z" />
<glyph unicode="&#x201d;" horiz-adv-x="913" d="M147 967l256 469h191l-283 -469h-164zM526 967l256 469h191l-283 -469h-164z" />
<glyph unicode="&#x201e;" horiz-adv-x="921" d="M-47 -236l256 469h190l-282 -469h-164zM326 -236l256 469h190l-283 -469h-163z" />
<glyph unicode="&#x2022;" horiz-adv-x="827" d="M139 506q0 122 97 213q95 92 221 92q102 0 168.5 -69.5t66.5 -172.5q0 -127 -94 -215q-96 -90 -219 -90q-104 0 -172 69.5t-68 172.5z" />
<glyph unicode="&#x2026;" horiz-adv-x="1574" d="M125 98q0 51 35 86q35 37 86 37t86 -37q37 -35 37 -86t-37 -86q-35 -35 -86 -35t-86 35t-35 86zM649 98q0 51 35 86q35 37 86 37t86 -37q37 -35 37 -86t-37 -86q-35 -35 -86 -35t-86 35t-35 86zM1175 98q0 51 35 86q35 37 86 37t86 -37q37 -35 37 -86t-37 -86 q-35 -35 -86 -35t-86 35t-35 86z" />
<glyph unicode="&#x202f;" horiz-adv-x="358" />
<glyph unicode="&#x2039;" horiz-adv-x="657" d="M68 502l350 502h168l-355 -502l215 -502h-167z" />
<glyph unicode="&#x203a;" horiz-adv-x="851" d="M387 0l354 502l-215 502h168l211 -502l-350 -502h-168z" />
<glyph unicode="&#x205f;" horiz-adv-x="448" />
<glyph unicode="&#x20ac;" horiz-adv-x="1419" d="M115 489l20 142h139q0 6 9 84l14 80h-139l18 139h158q82 239 256 381q171 143 393 143q270 0 401 -223l-116 -107q-95 185 -305 185q-155 0 -278 -100t-191 -279h499l-18 -139h-520l-15 -80q-6 -69 -6 -84h518l-20 -142h-498q17 -173 110.5 -269.5t250.5 -96.5 q209 0 379 176l83 -115q-227 -207 -483 -207q-220 0 -351.5 137t-148.5 375h-159z" />
<glyph unicode="&#x2122;" horiz-adv-x="1734" d="M160 1317l16 119h592l-16 -119h-234l-96 -686h-129l96 686h-229zM807 631l113 805h131l180 -514l325 514h144l-113 -805h-127l78 555l-250 -389h-133l-141 389l-78 -555h-129z" />
<glyph unicode="&#x25fc;" horiz-adv-x="1003" d="M0 0v1004h1004v-1004h-1004z" />
<glyph unicode="&#xfb01;" horiz-adv-x="1255" d="M119 864l20 140h187l10 75q50 357 403 357l56 -2l-19 -140q-20 2 -53 2q-111 0 -164.5 -51t-71.5 -166l-10 -75h645l-141 -1004h-152l121 864h-493l-121 -864h-152l121 864h-186zM979 1329q0 51 38.5 88t92.5 37q42 0 71 -29t29 -71q0 -51 -39.5 -89t-93.5 -38 q-42 0 -70 29.5t-28 72.5z" />
<glyph unicode="&#xfb02;" horiz-adv-x="1216" d="M119 864l20 140h187l10 75q50 357 403 357h443l-201 -1436h-152l183 1296h-289q-111 0 -164.5 -51t-71.5 -166l-10 -75h258l-20 -140h-258l-121 -864h-152l121 864h-186z" />
</font>
</defs>
</svg>
